<svg width="512" height="512" viewBox="0 0 512 512" fill="none" xmlns="http://www.w3.org/2000/svg">
<rect width="512" height="512" rx="128" fill="black"/>
<path d="M156 384V128H248.5C266.833 128 283.833 131.5 299.5 138.5C315.167 145.167 328.667 154.5 340 166.5C351.333 178.5 360 192.667 366 209C372 225.333 375 243 375 262C375 282.667 371.333 301.167 364 317.5C356.667 333.5 346.5 347.167 333.5 358.5C320.833 369.833 306 378.167 289 383.5C272 388.833 253.667 391.5 234 391.5H156V384ZM206 172V347H237.5C253.5 347 267.833 344.167 280.5 338.5C293.167 332.833 303.667 325 312 315C320.333 305 326.5 293.333 330.5 280C334.5 266.667 336.5 252.333 336.5 237C336.5 218 333.333 201 327 186C321.333 171 313.333 158.667 303 149C292.667 139.333 280.5 132.333 266.5 128H206V172Z" fill="white"/>
</svg>
